<?xml version="1.0" encoding="utf-8"?>
<!-- Generator: Adobe Illustrator 19.0.0, SVG Export Plug-In . SVG Version: 6.00 Build 0)  -->
<svg version="1.1" id="Layer_1" xmlns="http://www.w3.org/2000/svg" xmlns:xlink="http://www.w3.org/1999/xlink" x="0px" y="0px"
	 viewBox="-137.8 180.2 100 90.4" style="enable-background:new -137.8 180.2 100 90.4;" xml:space="preserve">
<style type="text/css">
	.st0{fill:#FFFFFF;}
	.st1{fill:#543B96;}
</style>
<g transform="translate(0.000000,228.000000) scale(0.100000,-0.100000)">
	<path class="st0" d="M-450.1,471.1c-41.5,0.9-99,3.8-128.2,4.7c-42.4,1.9-64.1-2.8-104.6-22.6c-58.4-28.3-92.4-55.6-92.4-71.6
		c0-20.7-17-0.9-23.6,26.4c-7.5,34.9-50,72.6-82,71.6c-31.1,0-71.6-36.8-81.1-72.6l-6.6-27.3l-37.7,33
		c-19.8,17.9-54.7,38.6-77.3,45.2c-22.6,6.6-40.5,14.1-40.5,17c0,8.5-104.6,6.6-110.3-2.8c-2.8-4.7-33.9-6.6-69.7-5.7
		c-78.2,3.8-92.4-5.7-74.5-48.1c17-40.5,73.5-98,118.8-120.6c21.7-11.3,66.9-24.5,101.8-31.1c50-8.5,60.3-13.2,52.8-22.6
		c-5.7-6.6-9.4-38.6-7.5-72.6l2.8-59.4l47.1-23.6c26.4-13.2,49-24.5,50.9-25.4c1.9-0.9-10.4-13.2-26.4-26.4
		c-36.8-32-38.6-64.1-2.8-86.7c14.1-8.5,27.3-17,29.2-17.9c0.9-1.9-3.8-12.3-12.3-24.5c-19.8-28.3-18.9-44.3,5.7-70.7
		c18.9-19.8,18.9-22.6,4.7-38.6c-21.7-23.6-19.8-50.9,2.8-80.1c10.4-13.2,18.9-34.9,18.9-47.1c0-18.9,7.5-26.4,33-35.8
		c17.9-6.6,33-17,33-22.6c0-17.9,34.9-44.3,53.7-40.5c9.4,1.9,23.6,17,32,33c8.5,17,17.9,28.3,19.8,25.4c2.8-1.9,16,0.9,30.2,6.6
		c17.9,8.5,24.5,18.9,24.5,36.8c0,14.1,8.5,33,18.9,42.4c22.6,20.7,24.5,58.4,2.8,82c-14.1,16-14.1,18.9,4.7,38.6
		c24.5,26.4,25.4,42.4,5.7,70.7c-8.5,12.3-13.2,22.6-12.3,24.5c1.9,0.9,15.1,9.4,30.2,17.9c16,10.4,25.4,24.5,25.4,38.6
		c0,23.6-28.3,62.2-46.2,62.2c-22.6,0-7.5,15.1,39.6,37.7l49,23.6l2.8,59.4c1.9,33.9-1.9,65-7.5,72.6c-8.5,9.4-1.9,13.2,30.2,18.9
		c89.5,13.2,199.8,67.9,209.2,102.7c2.8,10.4,8.5,14.1,17,9.4c6.6-3.8,9.4-3.8,5.7,0.9c-3.8,3.8,0,19.8,7.5,34.9
		C-357.8,460.8-366.3,468.3-450.1,471.1z M-1219.3,301.5c-52.8,17-109.3,64.1-137.6,113.1l-19.8,36.8l126.3,2.8
		c112.2,1.9,131,0,169.7-17.9c80.1-38.6,187.6-190.4,121.6-174.4c-11.3,2.8-66,10.4-118.8,16C-1131.6,282.6-1195.7,294-1219.3,301.5
		z M-739.5,87.5c-30.2-12.3-54.7-24.5-54.7-27.3c0.9-2.8,18.9-14.1,40.5-24.5c57.5-29.2,54.7-57.5-6.6-86.7l-46.2-21.7l32-16
		c46.2-23.6,47.1-52.8,2.8-75.4l-34.9-17.9l29.2-17.9c43.4-25.4,36.8-79.2-9.4-79.2c-20.7,0-21.7-7.5-2.8-29.2
		c13.2-14.1,13.2-17,0-31.1c-11.3-11.3-19.8-12.3-33-5.7c-28.3,15.1-33,11.3-33-25.4c0-32-2.8-35.8-23.6-35.8
		c-20.7,0-23.6,3.8-23.6,35.8c0,34.9-10.4,44.3-30.2,24.5c-7.5-7.5-16-7.5-30.2,0c-23.6,13.2-24.5,22.6-5.7,38.6
		c18.9,16,17.9,28.3-2.8,28.3c-46.2,0-52.8,53.7-9.4,79.2l29.2,17.9l-34.9,17.9c-44.3,22.6-43.4,51.8,2.8,75.4l31.1,16L-997.8-51
		c-64.1,30.2-66,54.7-8.5,88.6l43.4,25.4l-57.5,25.4c-31.1,14.1-62.2,30.2-66.9,34.9c-5.7,5.7-8.5,32-6.6,60.3l2.8,50.9l69.7,2.8
		c50,1.9,72.6-0.9,77.3-9.4c21.7-33-6.6-66-48.1-57.5c-17.9,2.8-28.3,0.9-28.3-5.7c0-5.7,6.6-10.4,14.1-10.4
		c8.5,0,31.1-8.5,51.8-18.9c20.7-10.4,40.5-18.9,44.3-18.9c3.8,0,6.6,47.1,4.7,105.6c-2.8,86.7-6.6,109.3-21.7,128.2
		c-23.6,30.2-22.6,63.1,0.9,86.7c25.4,25.4,69.7,24.5,94.3-1.9c23.6-25.4,24.5-58.4,0.9-82c-16-16-18.9-34.9-21.7-127.2
		c-1.9-60.3,0.9-109.3,4.7-109.3c3.8,0,23.6,8.5,44.3,18.9c20.7,10.4,43.4,18.9,51.8,18.9c7.5,0,14.1,4.7,14.1,10.4
		c0,6.6-10.4,8.5-25.4,5.7c-38.6-7.5-50,1.9-50,36.8v33l73.5-2.8l72.6-2.8l2.8-52.8C-661.3,121.5-662.2,120.5-739.5,87.5z
		 M-401.1,414.6c-46.2-82-115-117.8-261.1-134.8c-59.4-6.6-119.7-14.1-133.8-17.9c-22.6-4.7-24.5-2.8-22.6,18.9
		c3.8,33.9,91.4,131,139.5,154.6c35.8,17.9,55.6,19.8,169.7,17.9l128.2-1.9L-401.1,414.6z"/>
	<path class="st1" d="M-381.3,451.4l-19.8-36.8c-46.2-82-115-117.8-261.1-134.8c-59.4-6.6-119.7-14.1-133.8-17.9
		c-22.6-4.7-24.5-2.8-22.6,18.9c3.8,33.9,91.4,131,139.5,154.6c35.8,17.9,55.6,19.8,169.7,17.9L-381.3,451.4z"/>
	<path class="st1" d="M-959.1,261.9c-11.3,2.8-66,10.4-118.8,16c-53.7,4.7-117.8,16-141.4,23.6c-52.8,17-109.3,64.1-137.6,113.1
		l-19.8,36.8l126.3,2.8c112.2,1.9,131,0,169.7-17.9C-1000.6,397.6-893.1,245.9-959.1,261.9z"/>
	<path class="st1" d="M-739.5,87.5c77.3,33,78.2,33.9,75.4,94.3l-2.8,52.8l-72.6,2.8l-73.5,2.8v-33c0-34.9,11.3-44.3,50-36.8
		c15.1,2.8,25.4,0.9,25.4-5.7c0-5.7-6.6-10.4-14.1-10.4c-8.5,0-31.1-8.5-51.8-18.9c-20.7-10.4-40.5-18.9-44.3-18.9
		c-3.8,0-6.6,49-4.7,109.3c2.8,92.4,5.7,111.2,21.7,127.2c23.6,23.6,22.6,56.6-0.9,82c-24.5,26.4-68.8,27.3-94.3,1.9
		c-23.6-23.6-24.5-56.6-0.9-86.7c15.1-18.9,18.9-41.5,21.7-128.2c1.9-58.4-0.9-105.6-4.7-105.6c-3.8,0-23.6,8.5-44.3,18.9
		c-20.7,10.4-43.4,18.9-51.8,18.9c-7.5,0-14.1,4.7-14.1,10.4c0,6.6,10.4,8.5,28.3,5.7c41.5-8.5,69.7,24.5,48.1,57.5
		c-4.7,8.5-27.3,11.3-77.3,9.4l-69.7-2.8l-2.8-50.9c-1.9-28.3,0.9-54.7,6.6-60.3c4.7-4.7,35.8-20.7,66.9-34.9l57.5-25.4l-43.4-25.4
		c-57.5-33.9-55.6-58.4,8.5-88.6l45.2-21.7l-31.1-16c-46.2-23.6-47.1-52.8-2.8-75.4l34.9-17.9l-29.2-17.9
		c-43.4-25.4-36.8-79.2,9.4-79.2c20.7,0,21.7-12.3,2.8-28.3c-18.9-16-17.9-25.4,5.7-38.6c14.1-7.5,22.6-7.5,30.2,0
		c19.8,19.8,30.2,10.4,30.2-24.5c0-32,2.8-35.8,23.6-35.8c20.7,0,23.6,3.8,23.6,35.8c0,36.8,4.7,40.5,33,25.4
		c13.2-6.6,21.7-5.7,33,5.7c13.2,14.1,13.2,17,0,31.1c-18.9,21.7-17.9,29.2,2.8,29.2c46.2,0,52.8,53.7,9.4,79.2l-29.2,17.9
		l34.9,17.9c44.3,22.6,43.4,51.8-2.8,75.4l-32,16l46.2,21.7c61.3,29.2,64.1,57.5,6.6,86.7c-21.7,10.4-39.6,21.7-40.5,24.5
		C-794.2,63-769.7,75.3-739.5,87.5z M-932.7,9.3c31.1,16,32,16,32-15.1c0-17.9-4.7-26.4-10.4-23.6c-5.7,2.8-17.9,7.5-26.4,10.4
		C-960.1-11.4-959.1-2.9-932.7,9.3z M-901.6-128.3c0-20.7-3.8-22.6-24.5-9.4c-12.3,8.5-12.3,10.4,0,18.9
		C-905.4-105.7-901.6-107.6-901.6-128.3z M-900.7-232c-0.9-19.8-5.7-22.6-29.2-13.2c-14.1,5.7-14.1,7.5,0.9,18.9
		C-905.4-208.4-898.8-210.3-900.7-232z M-857.3-128.3c0.9,20.7,5.7,22.6,25.4,9.4c12.3-8.5,12.3-10.4,0-18.9
		C-852.6-151.9-859.2-149-857.3-128.3z M-828.1-245.2c-23.6-9.4-28.3-6.6-29.2,13.2c-1.9,21.7,4.7,23.6,28.3,5.7
		C-814-237.6-814-239.5-828.1-245.2z M-819.6-19c-9.4-2.8-21.7-7.5-27.3-10.4c-5.7-2.8-10.4,5.7-10.4,23.6s4.7,26.4,10.4,23.6
		c5.7-2.8,17.9-7.5,27.3-10.4c8.5-3.8,16-9.4,16-13.2S-811.1-15.2-819.6-19z"/>
	<path class="st0" d="M-900.7-5.8c0-17.9-4.7-26.4-10.4-23.6c-5.7,2.8-17.9,7.5-26.4,10.4c-22.6,7.5-21.7,16,4.7,28.3
		C-901.6,25.3-900.7,25.3-900.7-5.8z"/>
	<path class="st0" d="M-803.6-5.8c0-3.8-7.5-9.4-16-13.2c-9.4-2.8-21.7-7.5-27.3-10.4c-5.7-2.8-10.4,5.7-10.4,23.6
		s4.7,26.4,10.4,23.6c5.7-2.8,17.9-7.5,27.3-10.4C-811.1,3.7-803.6-2-803.6-5.8z"/>
	<path class="st0" d="M-901.6-128.3c0-20.7-3.8-22.6-24.5-9.4c-12.3,8.5-12.3,10.4,0,18.9C-905.4-105.7-901.6-107.6-901.6-128.3z"/>
	<path class="st0" d="M-831.9-137.7c-20.7-14.1-27.3-11.3-25.4,9.4c0.9,20.7,5.7,22.6,25.4,9.4
		C-819.6-127.4-819.6-129.2-831.9-137.7z"/>
	<path class="st0" d="M-900.7-232c-0.9-19.8-5.7-22.6-29.2-13.2c-14.1,5.7-14.1,7.5,0.9,18.9C-905.4-208.4-898.8-210.3-900.7-232z"
		/>
	<path class="st0" d="M-828.1-245.2c-23.6-9.4-28.3-6.6-29.2,13.2c-1.9,21.7,4.7,23.6,28.3,5.7C-814-237.6-814-239.5-828.1-245.2z"
		/>
</g>
</svg>
