<?xml version="1.0" encoding="utf-8"?>
<!-- Generator: Adobe Illustrator 19.0.0, SVG Export Plug-In . SVG Version: 6.00 Build 0)  -->
<svg version="1.1" id="Layer_1" xmlns="http://www.w3.org/2000/svg" xmlns:xlink="http://www.w3.org/1999/xlink" x="0px" y="0px"
	 viewBox="-391.7 231.4 100 100" style="enable-background:new -391.7 231.4 100 100;" xml:space="preserve">
<style type="text/css">
	.st0{fill:#B17745;}
	.st1{fill:none;}
</style>
<g transform="translate(0.000000,139.000000) scale(0.100000,-0.100000)">
	<path class="st0" d="M-3397-966.2c-1.6,10.6-9.8,14.7-28.6,14.7c-13.9,0-32.6,6.5-40.8,14.7c-21.2,18.8-36.7,17.9-57.9-4.9
		c-9.8-10.6-17.9-27.7-17.9-39.2c0-26.9,40.8-88.9,58.7-88.9c14.7,0,26.1-23.7,18.8-42.4c-2.4-6.5-21.2-19.6-41.6-29.4
		c-50.6-24.5-59.6-47.3-35.1-90.6c9.8-18.8,21.2-33.4,25.3-33.4c9.8,0,8.2,9-4.9,23.7c-22,25.3-22.8,47.3-4.1,65.3
		c10.6,9.8,22,17.1,26.1,17.1c15.5,0,54.7,34.3,54.7,47.3c0,7.3-5.7,24.5-12.2,37.5c-1.7,3.2-3.2,6.1-4.5,8.6
		c8.5,4.1,16,9.6,22.6,16.4C-3414.5-1040.2-3390.9-998-3397-966.2z M-3447.6-1020.1l-19.6-17.9l-17.1,23.7
		c-9,13.9-20.4,32.6-24.5,43.2c-0.1,0.2-0.1,0.3-0.2,0.5c0.1,0.5,0.2,1,0.3,1.6c0.5,2.6,1.2,5,2.6,6.5c2.1,2.4,4.1,3.7,6.2,4.1
		c2.6-4.5,6.6-10.4,12.4-17.7c21.2-26.1,23.7-27.7,40.8-15.5C-3420.7-975.2-3421.5-995.6-3447.6-1020.1z"/>
	<path class="st0" d="M-3430.5-1067.4c-13.1-12.2-4.1-44.9,18.8-69.3c13.9-13.9,24.5-28.6,24.5-31.8c0-9-14.7-21.2-46.5-40
		c-30.2-17.9-35.9-49-14.7-76.7c17.1-22.8,24.5-10.6,8.2,13.9c-12.2,19.6-12.2,22,2.4,35.9c8.2,8.2,26.9,21.2,40.8,28.6
		c26.1,13.9,32.6,32.6,18.8,54.7c-4.9,7.3-1.6,16.3,8.2,26.1c9,9,15.5,25.3,15.5,36.7c0,17.1-3.3,20.4-16.3,17.1
		c-9-2.4-18.8-0.8-21.2,3.3C-3397-1060.9-3423.1-1059.3-3430.5-1067.4z M-3377.4-1093.5c11.4,6.5,13.1,5.7,9.8-4.1
		c-7.3-18.8-28.6-22.8-40.8-7.3c-15.5,21.2-13.9,31.8,3.3,16.3C-3395.4-1097.6-3387.2-1099.2-3377.4-1093.5z"/>
	<path class="st0" d="M-3231.4-1482.7c-14.4,13.2-42.5,24.9-76.7,33.9c-0.4,0.3-0.8,0.5-1.2,0.7c-2.2,1.6-4.4,1.8-6.3,1.2
		c-59.8,14.7-135.8,21.1-189.9,13.1c-34.3-5.7-104.4-28.6-114.2-37.5c-4.9-4.1,5.7-4.9,28.6-0.8c85.7,15.5,201.5-2.4,235-35.9l7-7
		c3-8.2,3.4-16.8,0.7-25.5l-6.1-6.6c-25.3-26.9-84.8-50.6-159.9-63.6l-64.5-11.4l46.5-5.7c88.9-12.2,255.4,19.6,294.5,55.5
		C-3211-1547.1-3207.7-1503.9-3231.4-1482.7z M-3263.2-1537.3c-7.3-9-27.7-22.8-44.1-31c-8.5-4.3-15-8-19.9-11
		c-4.8-1.3-9.6-2.6-14.4-4c-8.3-1.4-16.6-2.6-25.1-3.4c8.8,4.7,17.5,9.9,25,15.7c5.2,2.1,14.2,8,23.7,15.7
		c22,17.1,23.7,21.2,13.9,36.7c-20.4,33.4,19.6,47.3,42.4,14.7C-3250.2-1520.2-3250.2-1523.5-3263.2-1537.3z"/>
	<path class="st0" d="M-3660.5-1508.8c-79.1-26.9-46.5-66.9,61.2-74.2c35.1-3.3,72.6-3.3,83.2,0c11.4,2.4-2.4,6.5-38.3,9.8
		c-65.3,5.7-112.6,19.6-107.7,32.6c1.6,4.9,14.7,14.7,28.6,21.2c13.9,7.3,26.1,15.5,26.1,19.6
		C-3607.5-1491.7-3614-1492.5-3660.5-1508.8z M-3672.8-1544.7c0-13.1-2.4-15.5-9-9c-4.9,4.9-6.5,13.1-4.1,17.9
		C-3676.9-1521.8-3672.8-1525.1-3672.8-1544.7z"/>
	<path class="st0" d="M-3132.7-1583.8c-23.7,0-23.7,0-19.6,44.9c3.3,36.7,0,49.8-17.9,80c-41.6,72.6-146.9,118.3-282.3,124
		c-42.4,1.6-94.6,0-115.8-4.1c-101.2-17.9-179.5-60.4-215.4-114.2c-19.6-29.4-22-40.8-21.2-88.9c4.1-139.5,71-268.4,173.8-335.3
		c117.5-75.9,260.3-57.1,364.7,49c22.8,24.5,42.4,39.2,42.4,33.4c0-12.2,49.8-33.4,80-33.4c53.8,0,115.8,71.8,115.8,134.6
		C-3028.3-1634.4-3076.4-1583.8-3132.7-1583.8z M-3423.1-1658.9c-128.1-16.3-289.6,31-335.3,97.9c-23.7,35.1-25.3,50.6-8.2,84
		c23.7,44.1,114.2,93.8,199.9,107.7c46.5,8.2,146,4.9,196.6-5.7c105.2-22.8,186.8-80.8,186.8-133.8
		C-3183.3-1581.4-3276.3-1639.3-3423.1-1658.9z M-3105.8-1730.7c-16.3-31.8-49-40-71-17.9c-15.5,15.5-16.3,19.6-7.3,56.3
		c13.9,55.5,31.8,63.6,69.3,34.3C-3090.3-1676.8-3087.8-1696.4-3105.8-1730.7z"/>
</g>
<path class="st1" d="M-355.7,287.5c0.1,0.7,0.4,1.3,0.8,1.9c-0.2-0.7-0.4-1.4-0.5-2.2c0,1.1,0,2.2,0,3.4"/>
</svg>
