<?xml version="1.0" encoding="utf-8"?>
<!-- Generator: Adobe Illustrator 19.0.0, SVG Export Plug-In . SVG Version: 6.00 Build 0)  -->
<svg version="1.1" id="igrids" xmlns="http://www.w3.org/2000/svg" xmlns:xlink="http://www.w3.org/1999/xlink" x="0px" y="0px"
	 viewBox="-273 75 412.4 411" style="enable-background:new -273 75 412.4 411;" xml:space="preserve">
<style type="text/css">
	.st0{fill:#00BCD4;}
</style>
<path class="st0" d="M-249.6,212.7v-20.4h12.8v20.4H-249.6z M-248.7,370.7V243.3h11v127.4H-248.7z M-138.1,370.7h-3.7l-6.7-14.3
	c-2.8,5.1-6.2,9.2-10.1,12.2c-4,3.1-8.4,4.6-13.3,4.6h-6.7c-4.4,0-8.4-1.2-12.3-3.4s-7.2-5.4-10-9.3s-5.1-8.7-6.7-13.9
	c-1.6-5.3-2.4-11-2.4-17v-96c0-6.1,0.9-11.7,2.4-17c1.6-5.3,3.9-10,6.7-13.9s6.2-7.1,10-9.3s7.9-3.4,12.3-3.4h9.2
	c4.4,0,8.4,1.2,12.2,3.4s7.2,5.4,10,9.3c2.8,3.9,5.1,8.7,6.7,13.9c1.6,5.3,2.4,11,2.4,17v7.1l-11.5,2.5v-9.7c0-3.9-0.5-7.6-1.6-11.2
	c-1.1-3.4-2.6-6.5-4.4-9c-1.8-2.5-4-4.6-6.5-6.1c-2.4-1.5-5.1-2.2-8.1-2.2h-8.1c-2.8,0-5.5,0.7-8.1,2.2c-2.4,1.5-4.6,3.6-6.5,6.1
	c-1.8,2.5-3.3,5.6-4.4,9c-1.1,3.4-1.6,7.1-1.6,11.2v95.8c0,3.9,0.5,7.6,1.6,11.2c1.1,3.4,2.6,6.5,4.4,9c1.8,2.5,4,4.6,6.5,6.1
	c2.4,1.5,5.1,2.2,8.1,2.2h8.1c2.8,0,5.5-0.7,8.1-2.2c2.4-1.5,4.6-3.6,6.5-6.1c1.8-2.5,3.3-5.6,4.4-9c1.1-3.4,1.6-7.1,1.6-11.2v-37.2
	h-20.5v-15.3h32L-138.1,370.7L-138.1,370.7z M-87.3,257.9c-2.2,0-4.3,0.5-6.2,1.7c-2,1.2-3.7,2.7-5,4.8c-1.3,2-2.6,4.4-3.4,7
	c-0.9,2.7-1.2,5.6-1.2,8.7v90.6h-11V243.3h3.7l6,12.9c2.6-4.8,5.6-8.5,9.4-11.2s7.9-4.2,12.3-4.2h6.5v17h-11v0.1H-87.3z
	 M-58.9,212.7v-20.4h12.8v20.4H-58.9z M-58,370.7V243.3h11v127.4H-58z M36.1,370.7L30,357.8c-2.6,4.8-5.6,8.5-9.4,11.2
	s-7.8,4.2-12.3,4.2H5.5c-3.7,0-7.2-1-10.5-2.9s-6.1-4.6-8.5-8s-4.4-7.3-5.7-11.9s-2.1-9.3-2.1-14.6v-57.6c0-5.1,0.7-10,2.1-14.6
	c1.3-4.6,3.3-8.5,5.7-11.9s5.3-6.1,8.5-8c3.3-1.9,6.7-2.9,10.5-2.9h2.8c4.2,0,7.9,1.2,11.5,3.6c3.5,2.4,6.5,5.6,9,9.7v-61.9h11
	v178.5H36.1z M28.8,277.4c0-3.1-0.4-5.9-1.2-8.7c-0.8-2.8-2-5.1-3.4-7c-1.5-1.9-3.2-3.6-5-4.8c-2-1.2-4-1.7-6.2-1.7H5.6
	c-2.2,0-4.3,0.5-6.2,1.7c-2,1.2-3.7,2.7-5,4.8c-1.3,2-2.6,4.4-3.4,7c-0.9,2.7-1.2,5.6-1.2,8.7v59.3c0,3.1,0.4,5.9,1.2,8.7
	s2,5.1,3.4,7c1.5,1.9,3.2,3.6,5,4.8c2,1.2,4,1.7,6.2,1.7h7.3c2.2,0,4.3-0.5,6.2-1.7c1.9-1.2,3.7-2.7,5-4.8c1.3-2,2.6-4.4,3.4-7
	c0.9-2.7,1.2-5.6,1.2-8.7L28.8,277.4L28.8,277.4z M124.8,338.4c0,5.1-0.7,9.9-2.2,14.1s-3.5,8-6.1,11c-2.6,3.1-5.5,5.4-8.9,7.1
	s-7,2.5-10.6,2.5h-7.3c-3.7,0-7.2-1-10.6-2.9s-6.3-4.6-8.9-8s-4.5-7.3-6.1-11.9c-1.5-4.6-2.3-9.3-2.3-14.6v-5.1l11-2.5v8.5
	c0,3.1,0.5,5.9,1.3,8.7c1,2.7,2.2,5.1,3.7,7c1.6,2,3.3,3.6,5.4,4.8c2.1,1.2,4.2,1.7,6.3,1.7h7.3c2.2,0,4.3-0.5,6.3-1.4
	c2.1-0.8,3.8-2.2,5.4-3.9c1.6-1.7,2.8-3.7,3.8-6.1s1.3-5.1,1.3-8.2c0-4.6-0.7-8.3-2.2-11.2c-1.5-2.9-3.3-5.3-5.7-7.3
	c-2.3-1.9-5-3.6-8.1-4.9c-3.1-1.4-6.1-2.5-9.3-3.9s-6.2-2.7-9.3-4.4c-3.1-1.7-5.7-3.9-8.1-6.5c-2.3-2.7-4.3-6.1-5.7-10.2
	c-1.5-4.1-2.2-9.2-2.2-15.1c0-5.1,0.7-9.9,2.2-14.1s3.4-8,5.9-11c2.4-3.1,5.3-5.4,8.5-7.1c3.3-1.7,6.7-2.5,10.4-2.5h6.5
	c3.7,0,7.2,1,10.5,2.9s6.1,4.6,8.5,8s4.4,7.3,5.7,11.9c1.3,4.6,2.1,9.3,2.1,14.6v0.5l-11,2.5v-3.9c0-3.1-0.4-5.9-1.2-8.7
	c-0.9-2.7-2-5.1-3.4-7c-1.5-1.9-3.2-3.6-5-4.8c-2-1.2-4-1.7-6.2-1.7h-5.9c-2.2,0-4.3,0.5-6.2,1.4c-2,0.8-3.7,2.2-5,3.9
	c-1.5,1.7-2.6,3.7-3.4,6.1c-0.9,2.4-1.2,5.1-1.2,8.2c0,4.4,0.7,8,2.2,10.7c1.5,2.7,3.3,5.1,5.7,7c2.3,1.9,5,3.6,8.1,4.8
	c3.1,1.4,6.1,2.5,9.2,3.9c3.2,1.4,6.2,2.9,9.2,4.6c2.9,1.7,5.7,3.9,8.1,6.8c2.3,2.9,4.3,6.1,5.7,10.2
	C124.3,326.9,124.8,332.3,124.8,338.4z"/>
</svg>
