<?xml version="1.0" encoding="utf-8"?>
<!-- Generator: Adobe Illustrator 19.0.0, SVG Export Plug-In . SVG Version: 6.00 Build 0)  -->
<svg version="1.1" id="Layer_1" xmlns="http://www.w3.org/2000/svg" xmlns:xlink="http://www.w3.org/1999/xlink" x="0px" y="0px"
	 viewBox="-269 190.6 100 100" style="enable-background:new -269 190.6 100 100;" xml:space="preserve">
<style type="text/css">
	.st0{fill:#FF3A06;}
</style>
<path class="st0" d="M-200.4,232.7h-8.1l1.5-2.1c5.5-7.8,2.2-18.6-6.8-22.4c-14.3-6-24.6,8.8-16.6,23.8c0.2,0.3-3.6,0.6-8.3,0.8
	c-15.5,0.5-16.4,2.2-16.4,28.5c0,30.2-1,29.3,36.4,29.3c36.5,0,35.7,0.6,35.7-28.6C-182.7,235.7-184.5,232.7-200.4,232.7z
	 M-220,287.4l-26.6-0.2l-2-1.9c-3.8-3.5-4.1-5.3-4.1-23.5c0-21.1,0.9-24.2,7.2-26.2c1.2-0.4,6.1-0.6,10.8-0.5l8.7,0.2l0.2,18.7
	c0.2,18.8,0.8,22.4,3.2,22.4c0.4,0,0.7-8.7,0.7-19.6c0-12.6,0.2-19.6,0.8-19.6s0.8,7.1,0.8,20.1v20l2.3-2.1c2.6-2.5,3-5.8,1.1-8.5
	c-1.1-1.5-1.1-1.9,0-3.5c1.1-1.7,1.1-1.9,0-2.8c-2.5-2-2.6-3.5-0.8-5.8c2.6-3,2.9-4.7,1.7-7.2c-1.6-3-1.4-3.5,1.1-4.4
	c2.4-0.8,4.5-4,4.5-6.6c0-3.8,18.6-1.7,22.6,2.6l1.9,2l0.2,19.7C-185.6,289.7-183,287.7-220,287.4z"/>
<path class="st0" d="M-195.5,222.1h-4.4l-0.8-3.8c-4.4-20.3-33.9-20.2-36.6,0.1l-0.5,3.7h-9l0.5-4.1c1.9-18.1,22-29.6,38.5-22
	c7.9,3.7,13.9,11,16,19.2C-190.4,222.1-190.4,222.1-195.5,222.1z"/>
</svg>
