<?xml version="1.0" encoding="utf-8"?>
<!-- Generator: Adobe Illustrator 19.0.0, SVG Export Plug-In . SVG Version: 6.00 Build 0)  -->
<svg version="1.1" id="Layer_1" xmlns="http://www.w3.org/2000/svg" xmlns:xlink="http://www.w3.org/1999/xlink" x="0px" y="0px"
	 viewBox="-261.3 191.4 100 100" style="enable-background:new -261.3 191.4 100 100;" xml:space="preserve">
<style type="text/css">
	.st0{fill:#714684;}
	.st1{fill:#393185;}
	.st2{fill:#00A0E2;}
	.st3{fill:#009647;}
	.st4{fill:#FFEC00;}
	.st5{fill:#EF7F1A;}
	.st6{fill:#E31E24;}
	.st7{fill:#008D33;}
	.st8{fill:#FFFFFF;}
	.st9{fill:#DF0103;}
</style>
<g id="Layer_1_1_">
	<g>
		<g>
			<rect x="-261.3" y="227.1" class="st0" width="100" height="5.9"/>
			<rect x="-261.3" y="232.9" class="st1" width="100" height="5.9"/>
			<rect x="-261.3" y="238.9" class="st2" width="100" height="5.9"/>
			<rect x="-261.3" y="244.8" class="st3" width="100" height="5.9"/>
			<rect x="-261.3" y="250.6" class="st4" width="100" height="5.9"/>
			<rect x="-261.3" y="256.5" class="st5" width="100" height="5.9"/>
			<rect x="-261.3" y="262.3" class="st6" width="100" height="5.9"/>
		</g>
		<path class="st7" d="M-179.1,236.7c-1.4-0.3-2.5-0.8-4.6-1.8c-0.7-0.4-0.8-0.5-0.1-0.4c-1-0.2-2-0.5-3-0.9
			c-0.2-0.1-0.5-0.2-0.7-0.4c-0.5-0.1-0.8-0.3-1.3-0.5c-1.2-0.6-2.6-1.1-3-1.3c-0.4-0.2-0.9-0.4-1.2-0.4c-0.8,0-4-1.7-3.3-1.7
			c0.1,0,0.3,0,0.7,0c-0.3,0-0.6-0.1-0.8-0.1l0,0h-0.1c-0.7,0-1.2-0.4-1.4-0.9h-0.5V227c0-1.7-1.1-6.7-1.8-7.9s-2.3-2.8-3.1-2.8
			c-0.4,0-1.2-0.5-2-1c-0.7-0.6-1.8-1-2.2-1c-1.3,0-4.3,1.6-7.6,4.1l-3.1,2.2l-6.7-2.6c-3.7-1.4-7.1-2.9-7.4-3.3l0,0
			c-0.2,0-0.3,0.1-0.5,0.1c-0.3,0.1-0.5,0.2-0.7,0.4c-2,4.8-3.3,8.4-4.3,10.5c0.1,0.1,0.2,0.1,0.3,0.2c0.7,0.7,0.6,1.6,0,2.3
			c0.1-0.2-0.1,0.1-0.1,0.2c-0.1,0.1-0.2,0.3-0.2,0.4c-0.1,0.2-0.1,0.3-0.2,0.3c-0.3,3.3-2,6.3-3.6,9.1c-0.8,1.4-1.8,2.9-2.5,4.4
			c-0.2,0.4-0.4,0.8-0.5,1c0,0.2,0,0.4,0,0.5c0.1,0.3-0.1,1-0.4,1.7c-0.4,0.7-0.7,1.4-0.7,1.7c0,0.3-0.4,0.8-0.8,1.1
			c-0.7,0.5-0.8,0.8-0.6,1.8c0.3,1.2,1.6,2,10,5.3c1.9,0.8,3.7,1.5,4.2,1.7s1.6,0.7,2.5,1c2,0.8,6.2,2.4,9.4,3.8l0.9,0.4
			c0.8,0.2,1.5,0.7,2.3,0.9c0.7,0.1,1.2,0.3,1.9,0.5l0,0h0.4l8,3.2c4.5,1.8,9.4,3.8,11.1,4.5c1.7,0.8,3.1,1.2,3.2,1.1
			c0.3-0.4,1.6-3.3,2.3-5.4c0.4-0.8,0.7-1.8,0.9-2.3c-0.2-1.8,1-3.4,1.9-4.8c0.2-0.3,0.3-0.5,0.6-0.6c0.6-1.4,1.2-3,1.8-4.3
			c0.2-0.5,0.8-2.3,1.6-3.9l1.1-2.8c-0.1-0.3-0.1-0.6,0-0.9c0.5-1.4,1-2.8,2-3.9l0,0c0-0.1,0.4-1,0.8-2c0.5-0.9,1-2.3,1.2-2.8
			l0.2-0.6C-178.8,237.7-178.9,237.2-179.1,236.7z M-202,218.2c0.4,0.4,0.8,1.2,1.1,1.7c0.6,1,2,7.8,1.7,8.1c-0.1,0.1-0.6,0-0.9-0.3
			c-0.7-0.3-0.9-1.2-1.3-4.1c-0.3-2.1-0.7-4.1-1.1-4.6c-0.4-0.6-0.7-1.1-0.7-1.2C-203.3,217.3-202.6,217.6-202,218.2z M-204.8,217.1
			c0.2,0,0.7,0.7,0.9,1.6c0.7,1.6,1.9,7.8,1.6,8.1c-0.1,0.1-0.8-0.1-1.7-0.5c-1.2-0.7-6.5-2.7-8.6-3.4c-0.4-0.1-0.7-0.4-0.7-0.6
			C-213.3,221.7-205.9,217.2-204.8,217.1z M-211.9,217.4c2.5-1.7,5.7-2.3,6-1.2c0.1,0.4-0.2,0.6-0.7,0.6c-0.9,0-6.1,3.4-7.2,4.7
			c-0.6,0.8-0.8,0.8-1.8,0.3c-0.6-0.3-1-0.7-1-0.8C-216.6,220.7-214.4,219.1-211.9,217.4z M-180.6,239.7c-0.4,0.8-0.8,2-1,2.4
			c-0.2,0.5-1.3,3.2-2.4,6c-1.2,2.9-2.1,5.3-2.1,5.5s-0.6,1.7-1.3,3.3c-2.4,5.3-2.9,6.4-4.4,10.3c-0.8,2.2-1.6,4-1.7,4.1
			c-0.1,0.1-4.1-1.4-9-3.4c-4.9-2-11-4.4-13.5-5.3c-8.7-3.4-29.6-11.8-29.8-12c-0.1-0.1,0.1-0.7,0.5-1.3c0.8-1.7,5.2-12.4,5.2-12.9
			c0-0.2,0.6-1.6,1.2-3.1c0.7-1.5,2.2-5.1,3.3-7.9c3-7.5,3.3-8.3,3.6-8.3c0.2,0,3.3,1.2,7,2.7s11.8,4.7,18,7.2
			c6.2,2.4,14.6,5.8,18.7,7.4c4.1,1.7,7.5,2.9,7.8,2.9C-179.8,237.4-179.8,237.9-180.6,239.7z"/>
		<path class="st8" d="M-180.6,239.7c-0.4,0.8-0.8,2-1,2.4c-0.2,0.5-1.3,3.2-2.4,6c-1.2,2.9-2.1,5.3-2.1,5.5s-0.6,1.7-1.3,3.3
			c-2.4,5.3-2.9,6.4-4.4,10.3c-0.8,2.2-1.6,4-1.7,4.1c-0.1,0.1-4.1-1.4-9-3.4c-4.9-2-11-4.4-13.5-5.3c-8.7-3.4-29.6-11.8-29.8-12
			c-0.1-0.1,0.1-0.7,0.5-1.3c0.8-1.7,5.2-12.4,5.2-12.9c0-0.2,0.6-1.6,1.2-3.1c0.7-1.5,2.2-5.1,3.3-7.9c3-7.5,3.3-8.3,3.6-8.3
			c0.2,0,3.3,1.2,7,2.7s11.8,4.7,18,7.2c6.2,2.4,14.6,5.8,18.7,7.4c4.1,1.7,7.5,2.9,7.8,2.9C-179.8,237.4-179.8,237.9-180.6,239.7z"
			/>
		<path class="st9" d="M-223.6,232.6c-0.3,0.1-0.6,0.5-0.6,0.8c0,0.4-0.4,0.6-1.1,0.5c-1.8-0.1-1.5,1,0.4,1.7
			c1.2,0.5,1.7,0.5,2.2,0.1C-221.5,234.6-222.3,232.1-223.6,232.6z M-223.4,234.4L-223.4,234.4
			C-223.4,234.4-223.4,234.3-223.4,234.4c0-0.1,0-0.1,0-0.2l0,0C-223.4,234.3-223.3,234.3-223.4,234.4z M-223.9,234.5L-223.9,234.5
			c-0.1,0.1-0.2,0.1-0.2,0.2C-224.1,234.6-224,234.5-223.9,234.5C-224,234.5-223.9,234.5-223.9,234.5z"/>
		<path class="st9" d="M-235.7,234c-0.9,0.1-2,0.5-2.6,0.8c-0.8,0.5-0.8,0.7-0.4,1.2c0.3,0.4,0.6,1.1,0.6,1.6c0,0.5,0,2.1,0.1,3.5
			c0.1,2.2,0.2,2.6,0.7,2.6s0.7-0.4,0.5-2.5c-0.1-1.4-0.1-2.5,0-2.5c0.2,0,3.6,2.4,5.6,4.1c1.4,1.1,1.9,1.3,2.5,0.9
			c0.4-0.3,0.8-0.7,0.8-0.8c0-0.3,0.3-0.3,0.7,0c0.7,0.4,0.7,0.1,0.7-2.9c0-3.8-0.5-4.5-2.5-4c-1.1,0.3-2.7,2.6-2.7,4
			c0,1-0.5,1.1-1.3,0.2c-0.3-0.4-1-0.9-1.7-1.2c-0.7-0.4-1.2-0.8-1.2-0.9s0.8-0.7,1.8-1.2C-231,235.2-232,233.4-235.7,234z
			 M-233.3,235.2c0,0.2-0.5,0.6-1.1,0.8c-0.7,0.2-1.5,0.6-1.9,0.8c-0.4,0.2-0.8,0-0.9-0.4s0.1-0.8,0.7-1
			C-235.4,234.7-233.3,234.7-233.3,235.2z M-227.6,238.3c0.2,1.8-0.9,4.5-1.9,4.5c-0.8,0-1.6-1.8-1.2-3.1c0.4-1.3,1.9-3.3,2.5-3.1
			C-227.9,236.7-227.7,237.5-227.6,238.3z"/>
		<path class="st9" d="M-221.4,236c-0.5,0.6-0.3,6.3,0.3,6.9c0.8,0.7,1.1,0.1,0.8-1.7c-0.2-1.3-0.1-1.7,0.8-2.4
			c1.5-1.2,2.4-0.7,2.9,1.8c0.6,2.7,1.6,2.3,1-0.4c-0.1-0.6,0-0.8,0.4-0.8c0.4,0,0.7,0.7,0.7,2.1c0.1,1.1,0.3,2.3,0.5,2.4
			c0.5,0.5,2.3-0.3,3.4-1.4l0.8-0.8l0.6,0.8c0.4,0.5,0.8,0.8,1.2,0.8c0.7,0,2-1.4,2.3-2.8c0.4-1.3,0.5-1.2,1.2,1.9
			c0.5,1.9,1.4,2.3,1.7,0.7c0.5-3.2,1-3.6,1.6-1.1c0.5,2.1,1.6,2.1,1.9,0.1c0.3-1.7,1.1-3.4,1.7-3.4c0.3,0,0.4-0.3,0.4-0.7
			c0-1.1-1.4-0.5-2,0.9c-0.7,1.6-1.6,1.8-1.8,0.6c-0.2-1.3-0.8-1.2-1.6,0.3c-0.7,1.6-1.2,1.8-1.2,0.6c0-0.8-1.4-2.4-3.3-3.7
			c-1.1-0.8-2,0-2,2c0,1.6,0,1.6-1.5,0.9c-1.2-0.6-1.2-0.8-0.5-1.6c0.4-0.4,0.4-0.7-0.3-1.1c-0.5-0.4-1-0.5-1.4-0.3
			s-0.9,0.3-1.4,0.2c-0.6-0.2-0.8,0-0.8,0.7c0,1-0.9,1.2-1.7,0.3c-0.7-0.8-1.7-0.8-2.8,0c-1.2,0.8-1.6,0.8-1.2-0.4
			C-220.4,236.1-220.9,235.4-221.4,236z M-212,237.6c0,0.2-0.3,0.8-0.7,1.2c-0.5,0.7-0.7,0.8-1,0.2c-0.3-0.4-0.3-0.8,0-1.1
			C-213.2,237.3-212,237.2-212,237.6z M-206.5,238.7c0.4,1.1-0.4,3.4-1.2,3.5c-0.5,0-0.8-3.3-0.5-4.2
			C-207.8,237-206.9,237.5-206.5,238.7z M-211,240.1c1,0.4,0.8,1.2-0.6,2c-1.7,0.9-1.7,0.9-1.7-0.5
			C-213.3,240.1-212.5,239.6-211,240.1z"/>
		<path class="st9" d="M-225.3,238.2c0.1,0.8,0.3,2.2,0.3,3.2c0,1.3,0.2,1.8,0.6,1.7c0.3-0.1,0.5-0.8,0.4-1.6c0-0.8,0-2.2-0.1-3
			c0-1.1-0.2-1.6-0.7-1.6C-225.3,236.9-225.4,237.2-225.3,238.2z"/>
		<path class="st9" d="M-200.9,244.8c-1.3,0.2-1.5,0.9-0.4,1.7c0.7,0.4,1,0.4,1.9-0.4c0.7-0.5,1-1,0.8-1.2
			C-198.7,244.5-198.8,244.5-200.9,244.8z"/>
		<path class="st9" d="M-228.4,246.5c-0.7,0.2-0.7,0.8-0.7,4.2c0,2.8,0.3,4.1,0.7,4.2c0.4,0.1,0.5-0.5,0.5-2.2
			c0-2.1,0.1-2.3,0.7-2.3c0.9,0,2.6-1.7,2.6-2.5C-224.6,246.5-226.2,245.9-228.4,246.5z M-225.6,247.5c0.4,0.5-0.9,2.1-1.8,2.1
			c-0.6,0-0.7-1.7-0.3-2.3C-227.2,246.8-225.9,247-225.6,247.5z"/>
		<path class="st9" d="M-219.4,247.3c-1.2,1.3-1.3,2.4-0.4,4.7c0.7,1.6,2.3,2.9,3.2,2.4c0.7-0.5,0.4-1-0.5-1c-0.9,0-2.5-2.3-2.5-3.7
			c0-0.5,0.5-1.2,1-1.7c1.1-0.8,1.4-1.8,0.7-1.8C-218.2,246.2-218.8,246.7-219.4,247.3z"/>
		<path class="st9" d="M-215.5,246.5c-0.1,0.2-0.1,2-0.1,3.8c0,2.4,0.2,3.7,0.6,3.8c0.4,0.1,0.5-0.3,0.5-1.4v-1.6l1.5,1.4
			c0.8,0.8,1.6,1.2,1.8,1.1c0.2-0.2-0.4-0.9-1.2-1.8c-1.8-1.7-1.9-1.9-0.7-2.6c0.8-0.6,1.2-1.8,0.4-1.8c-0.3,0-0.6,0.3-0.7,0.7
			c-0.4,1-1,0.8-1-0.7C-214.6,246.3-215.1,245.7-215.5,246.5z"/>
		<path class="st9" d="M-223.6,248.1c-0.4,0.6-0.8,2-0.9,3c-0.2,1.6,0,2.1,0.7,2.9s1.1,0.9,1.6,0.6c0.4-0.4,0.7-0.4,1.1,0
			c0.7,0.7,1.4-0.2,0.7-0.9c-0.2-0.3-0.5-1.9-0.6-3.5c-0.1-2.6-0.2-2.9-1-3.1C-222.6,247-223.1,247.3-223.6,248.1z M-221.8,250.7
			c-0.2,2.9-0.4,3.4-1.1,2.9c-1-0.6-0.3-5.7,0.8-5.7C-221.7,247.9-221.6,248.7-221.8,250.7z"/>
		<path class="st9" d="M-210.2,248.2c-1,1.6-1,4.9,0,6c0.6,0.7,0.8,0.8,1.3,0.4c0.4-0.4,0.7-0.4,1.1,0c0.8,0.8,1.1,0,0.7-1.8
			c-0.3-0.8-0.4-2.4-0.3-3.6c0.1-1.9,0-2-0.9-2.1C-209.2,247-209.6,247.3-210.2,248.2z M-208.3,249.8c0,2.5-0.4,4-1,3.8
			c-1.1-0.4-0.5-5.8,0.7-5.8C-208.4,247.9-208.3,248.8-208.3,249.8z"/>
		<path class="st9" d="M-197.8,250.9c0,3.1,0.1,3.8,0.7,3.8c0.5,0,0.7-0.6,0.7-2.3s0.2-2.5,0.8-3.2c0.5-0.5,1-0.8,1.2-0.8
			c0.7,0,1.3,1.8,1.2,3.9c-0.1,1.8,0,2.2,0.7,2.3c0.7,0.2,0.7-0.1,0.5-2.7c-0.2-1.6-0.5-3.2-0.7-3.7c-0.4-0.8-2.6-1-3.1-0.3
			c-0.2,0.4-0.4,0.3-0.7-0.2C-197.5,246.3-197.8,247.1-197.8,250.9z"/>
		<path class="st9" d="M-205.3,248.4c-1.9,2.1-0.5,4.8,1.9,3.8c0.9-0.4,1-0.4,1,0.6c0,1.1-0.7,1.7-1.8,1.6c-0.5-0.1-0.7,0.1-0.7,0.5
			c0,0.8,2.2,0.9,2.9,0.1c0.6-0.7,0.6-6.2,0-6.9C-202.7,247.1-204.3,247.4-205.3,248.4z M-202.9,249.7c0.2,1.4-1.2,2.3-2,1.3
			c-0.4-0.5-0.4-0.8,0.2-1.7C-203.9,248-203.1,248.2-202.9,249.7z"/>
		<path class="st9" d="M-200.8,251.1c0,2,0.2,3.6,0.4,3.6c0.4,0,1-6.1,0.7-6.8C-200.4,246.7-200.8,247.8-200.8,251.1z"/>
		<path class="st9" d="M-190.7,248.5c-1,1.3-1.1,2.3-0.3,3.4c0.6,0.8,0.7,0.8,1.9,0.3c1.2-0.5,1.3-0.4,1.3,0.5c0,1.2-0.9,2-1.9,1.7
			c-0.5-0.2-0.7,0-0.7,0.4c0,0.9,2,0.8,2.8-0.1c0.8-1.1,0.8-6.7-0.1-7C-189,247.2-189.9,247.5-190.7,248.5z M-188.3,249.7
			c0.2,1.4-1.2,2.3-2,1.3c-0.4-0.5-0.4-0.8,0.2-1.7C-189.3,248-188.5,248.2-188.3,249.7z"/>
		<polygon class="st7" points="-233,214.3 -231.4,214.9 -245.5,250.6 -247.1,249.9 		"/>
		<polygon class="st7" points="-180,236.8 -178.3,237.5 -192.5,273.1 -194.1,272.4 		"/>
		<path class="st7" d="M-246.4,251L-246.4,251c0-0.1,0-0.2,0.1-0.2c0.2-0.1,0-0.4-0.2-0.3c0,0-0.1,0-0.1,0.1v-0.1
			c0-0.1-0.1-0.2-0.2-0.1v-0.1c0-0.1-0.2-0.2-0.3-0.1l-0.1,0.1c0,0,0-0.1,0.1-0.1c0.1-0.1,0-0.3-0.1-0.3c-0.1-0.1-0.2-0.1-0.3,0
			c0,0.2-0.1,0.3-0.2,0.5l-0.1,0.2l0,0l0,0c0,0,0,0,0,0.1s0,0.1-0.1,0.2v0.1c0,0.1-0.1,0.3-0.2,0.4l55.3,22.1l0.3-0.8L-246.4,251z"
			/>
		<path class="st7" d="M-231.9,215.1L-231.9,215.1c0-0.1,0-0.2,0.1-0.2c0.2-0.1,0-0.4-0.2-0.3c0,0-0.1,0-0.1,0.1v-0.1
			c0-0.1-0.1-0.2-0.2-0.1v-0.1c0-0.1-0.2-0.2-0.3-0.1l-0.1,0.1c0,0,0-0.1,0.1-0.1c0.1-0.1,0-0.3-0.1-0.3c-0.1-0.1-0.2-0.1-0.3,0
			c0,0.2-0.1,0.3-0.2,0.5l-0.1,0.2l0,0l0,0c0,0,0,0,0,0.1s0,0.1-0.1,0.2v0.1c0,0.1-0.1,0.3-0.2,0.4l55.3,22l0.3-0.8L-231.9,215.1z"
			/>
	</g>
</g>
<g id="Layer_2">
</g>
</svg>
