<?xml version="1.0" encoding="utf-8"?>
<!-- Generator: Adobe Illustrator 19.0.0, SVG Export Plug-In . SVG Version: 6.00 Build 0)  -->
<svg version="1.1" id="Layer_1" xmlns="http://www.w3.org/2000/svg" xmlns:xlink="http://www.w3.org/1999/xlink" x="0px" y="0px"
	 viewBox="-269 191 100 100" style="enable-background:new -269 191 100 100;" xml:space="preserve">
<style type="text/css">
	.st0{fill:#F16906;}
</style>
<g transform="translate(0.000000,98.000000) scale(0.100000,-0.100000)">
	<path class="st0" d="M-1869-1020c-4.1,0-9.7-10.1-13-22.7c-14.6-65.5-86-146.9-153.3-176.3c-34.9-14.3-36.5-16.8-36.5-48.7
		c0-77.2-102.2-220.8-189-263.6c-44.6-22.7-113.5-42.8-145.2-42.8c-17,0-22.7-4.2-22.7-16.8c0-27.7-20.3-69.7-48.7-104.1
		c-14.6-16.8-24.3-32.7-21.1-36.1c8.9-9.2,95.7,15.1,150.8,42c80.3,38.6,171.1,137.7,221.4,240.9c32.4,65.5,45.4,82.3,72.2,98.2
		c91.6,53.7,148.4,134.3,176.8,249.3C-1858.5-1024.2-1857.7-1020-1869-1020z"/>
	<path class="st0" d="M-1797.7-1154.3c-3.2-6.7-11.4-31.9-17.8-54.6c-43.8-144.4-193.8-303-334.1-353.4l-42.2-15.1v-56.2
		c-0.8-60.4-22.7-138.5-51.1-178c-8.9-13.4-15.4-26-13-27.7c6.5-6.7,103,37.8,143.5,65.5c57.6,40.3,143.5,131.8,183.3,193.9
		c70.6,111.6,100.6,190.6,128.9,331.6C-1787.9-1183.7-1786.3-1123.3-1797.7-1154.3z"/>
	<path class="st0" d="M-2363.7-1406.2c-19.5-48.7-111.9-116.7-158.9-117.5c-13.8,0-19.5-7.6-26-36.1c-4.9-20.1-17-43.7-26-52
		c-23.5-22.7-20.3-31.9,10.5-25.2c75.4,17.6,154.1,86.5,196.3,174.6c15.4,31.9,28.4,63.8,28.4,69.7
		C-2339.4-1372.6-2353.2-1380.1-2363.7-1406.2z"/>
</g>
</svg>
