<?xml version="1.0" encoding="iso-8859-1"?>
<!-- Generator: Adobe Illustrator 19.0.0, SVG Export Plug-In . SVG Version: 6.00 Build 0)  -->
<svg version="1.1" id="Layer_1" xmlns="http://www.w3.org/2000/svg" xmlns:xlink="http://www.w3.org/1999/xlink" x="0px" y="0px"
	 viewBox="0 0 512 512" style="enable-background:new 0 0 512 512;" xml:space="preserve">
<path style="fill:#C3E678;" d="M476.69,229.517c0-7.604-3.215-14.914-8.819-20.052l-81.033-74.278
	c-8.14-7.463-18.782-11.602-29.825-11.602H17.655C7.905,123.586,0,131.49,0,141.241v176.552c0,9.75,7.905,17.655,17.655,17.655
	h339.362c11.043,0,21.685-4.139,29.826-11.602l19.225-17.624V256h54.786l7.016-6.431C473.474,244.431,476.69,237.121,476.69,229.517
	z"/>
<path style="fill:#A0CD5A;" d="M467.871,209.465l-81.033-74.278c-8.14-7.463-18.782-11.602-29.825-11.602H17.655
	C7.905,123.586,0,131.49,0,141.241v176.552c0,9.75,7.905,17.655,17.655,17.655h339.362c11.043,0,21.685-4.139,29.826-11.602
	l19.225-17.624v-23.95l-31.155,28.559c-4.885,4.478-11.27,6.962-17.896,6.962H44.138c-4.875,0-8.828-3.953-8.828-8.828V150.069
	c0-4.875,3.953-8.828,8.828-8.828h312.875c6.644,0,12.999,2.472,17.895,6.961l81.031,74.276c1.967,1.804,3.095,4.37,3.095,7.039
	s-1.128,5.235-3.094,7.037L434.728,256h26.127l7.016-6.431c5.603-5.138,8.819-12.448,8.819-20.052S473.474,214.603,467.871,209.465z
	"/>
<path style="fill:#AAEBFA;" d="M503.181,262.431l-81.033-74.278c-8.14-7.463-18.782-11.602-29.825-11.602H52.966
	c-9.75,0-17.655,7.904-17.655,17.655v176.552c0,9.75,7.905,17.655,17.655,17.655h339.362c11.043,0,21.685-4.139,29.826-11.602
	l81.027-74.278c5.603-5.138,8.819-12.448,8.819-20.052S508.785,267.569,503.181,262.431z M432.538,300.039
	c-9.75,0-17.655-7.905-17.655-17.655c0-9.751,7.905-17.655,17.655-17.655s17.655,7.904,17.655,17.655
	S442.29,300.039,432.538,300.039z"/>
<path style="fill:#78CDE6;" d="M392.323,194.207c6.644,0,12.999,2.472,17.895,6.961l81.031,74.276
	c1.967,1.804,3.095,4.37,3.095,7.039c0,2.669-1.129,5.235-3.094,7.037l-81.027,74.277c-4.884,4.478-11.27,6.962-17.896,6.962H79.448
	c-4.875,0-8.828-3.953-8.828-8.828V203.034c0-4.875,3.953-8.828,8.828-8.828H392.323 M392.323,176.552H52.966
	c-9.75,0-17.655,7.904-17.655,17.655v176.552c0,9.75,7.905,17.655,17.655,17.655h339.362c11.043,0,21.685-4.139,29.826-11.602
	l81.027-74.278c5.603-5.138,8.819-12.448,8.819-20.052s-3.215-14.914-8.819-20.052l-81.033-74.278
	C414.008,180.691,403.367,176.552,392.323,176.552L392.323,176.552z"/>
<g>
	<path style="fill:#FFFFFF;" d="M128.984,303.46c3.09,0,5.673,1.906,7.169,4.609c3.038,5.489,10.19,8.872,18.906,8.872
		c11.019,0,18.546-5.268,18.546-12.522c0-6.438-4.723-9.99-16.629-12.663l-12.865-2.805c-18.199-3.895-27.164-13.138-27.164-27.577
		c0-18.195,15.736-30.241,37.773-30.241c17.907,0,30.624,7.18,35.534,18.795c2.184,5.165-1.841,10.902-7.448,10.902h-3.693
		c-3.271,0-5.906-2.143-7.388-5.058c-2.688-5.289-8.903-8.352-16.939-8.352c-10.196,0-17.038,4.863-17.038,12.18
		c0,6.094,4.792,9.515,16.15,12.109l11.972,2.532c19.777,4.247,28.399,12.734,28.399,27.779c0,19.161-15.534,31.279-40.029,31.279
		c-18.802,0-32.195-7.078-37.265-19.23c-2.112-5.063,2.019-10.607,7.505-10.607h4.502V303.46z"/>
	<path style="fill:#FFFFFF;" d="M263.951,331.583h-44.857c-6.675,0-12.085-5.41-12.085-12.085v-74.566
		c0-6.675,5.41-12.085,12.085-12.085h44.857c4.681,0,8.474,3.794,8.474,8.474v0.085c0,4.681-3.794,8.474-8.474,8.474h-36.277v23.814
		h34.282c4.383,0,7.936,3.553,7.936,7.936l0,0c0,4.383-3.553,7.936-7.936,7.936h-34.282v24.913h36.277
		c4.681,0,8.474,3.794,8.474,8.474v0.155C272.426,327.789,268.631,331.583,263.951,331.583z"/>
	<path style="fill:#FFFFFF;" d="M379.586,282.25c0,31.402-18.406,51.048-47.623,51.048c-29.288,0-47.627-19.645-47.627-51.048
		c0-31.481,18.339-51.118,47.627-51.118C361.181,231.133,379.586,250.769,379.586,282.25z M305.411,282.25
		c0,20.665,10.333,33.732,26.552,33.732c16.146,0,26.478-13.067,26.478-33.732c0-20.736-10.333-33.874-26.478-33.874
		C315.815,248.377,305.411,261.515,305.411,282.25z"/>
</g>
<g>
</g>
<g>
</g>
<g>
</g>
<g>
</g>
<g>
</g>
<g>
</g>
<g>
</g>
<g>
</g>
<g>
</g>
<g>
</g>
<g>
</g>
<g>
</g>
<g>
</g>
<g>
</g>
<g>
</g>
</svg>
